<svg width="383" height="387" viewBox="0 0 383 387" fill="none" xmlns="http://www.w3.org/2000/svg">
<g clip-path="url(#clip0_59_2)">
<path d="M115.578 137.149C116.75 137.648 114.371 146.914 118.058 150.767C119.555 152.331 121.543 153.077 123.679 153.048C125.742 153.021 127.672 152.305 129.114 150.786C132.331 147.397 131.499 141.615 131.486 137.257C133.124 137.149 134.794 137.149 136.435 137.139C141.395 137.111 146.274 138.891 149.807 142.474C152.465 145.199 154.257 148.663 154.956 152.423C155.483 155.147 155.294 158.106 155.297 160.874L155.279 173.405L155.223 221.28C155.189 228.412 153.799 233.812 148.623 238.929C145.677 241.825 141.986 243.827 137.97 244.71C133.089 245.823 125.233 245.267 120.047 245.267C109.408 245.301 98.7683 245.277 88.1292 245.194L70.8156 245.223C64.2971 245.169 58.5802 243.138 53.9726 238.358C51.029 235.341 49.0213 231.522 48.1966 227.369C47.6015 224.27 47.8513 220.876 47.8592 217.729L47.867 204.76C47.8633 188.721 47.7077 172.667 47.8663 156.63C47.9201 151.18 49.5808 146.183 53.5327 142.335C59.4259 136.596 66.4541 137 74.0823 137.189C74.0532 141.257 73.2311 147.329 76.0864 150.566C77.4407 152.103 79.3961 152.881 81.4035 152.99C83.5448 153.107 85.7459 152.472 87.3086 150.944C90.6733 147.653 89.7659 141.482 89.7562 137.178C98.3606 137.184 106.975 137.269 115.578 137.149ZM141.865 234.267C145.054 231.505 147.139 228.534 147.444 224.177C147.654 221.179 147.485 218.074 147.469 215.067L147.418 198.564L147.444 179.122C147.453 175.719 147.627 172.217 147.43 168.826C147.369 167.772 147.232 166.264 146.516 165.455C144.684 163.387 140.984 163.893 138.482 163.885L87.971 163.93C78.5938 163.929 69.1104 163.604 59.7445 163.934C58.4728 164.209 57.313 164.68 56.547 165.807C56.0559 166.53 55.922 167.22 55.8846 168.087C55.7073 172.187 55.8622 176.359 55.8644 180.465L55.8438 203.532L55.7907 217.353C55.7795 220.142 55.4743 223.483 56.0712 226.198C56.8537 229.757 59.3178 233.158 62.4098 235.013C64.2451 236.115 66.358 236.728 68.4791 236.909C71.6598 237.179 74.9759 237.025 78.1712 237.026L97.877 236.949L122.925 236.973C126.661 236.98 133.845 237.468 137.248 236.574C138.955 236.126 140.412 235.245 141.865 234.267Z" fill="#2D9972"/>
<path d="M108.048 174.272C109.909 174.225 119.98 173.916 120.853 174.409C123.27 175.775 121.021 186.851 122.208 189.864C124.856 190.95 133.212 189.33 136.323 190.284C136.814 190.435 136.972 190.505 137.197 190.98C137.854 192.369 137.958 202.761 137.361 204.46C136.528 206.831 124.79 204.478 122.322 205.915C121.13 206.609 122.54 218.164 121.675 220.571C121.418 221.286 120.988 221.505 120.353 221.801C118.234 221.881 108.84 222.332 107.532 221.387C106.998 221 106.741 220.429 106.619 219.792C106.415 218.729 106.541 217.533 106.565 216.456C106.626 213.665 106.986 208.845 106.482 206.234C106.192 205.9 106.105 205.777 105.657 205.675C104.69 205.454 103.494 205.579 102.505 205.586C99.4678 205.609 96.0556 205.961 93.0593 205.586C92.337 205.496 91.2105 205.26 90.8076 204.566C90.3513 203.781 90.3936 192.971 90.6898 191.716C90.8144 191.188 90.9913 190.805 91.4596 190.51C93.9644 188.931 104.257 191.234 106.115 189.79C107.33 188.846 106.187 178.154 106.686 175.935C106.887 175.037 107.314 174.729 108.048 174.272Z" fill="#0D5477"/>
<path d="M67.0743 174.274C70.0665 174.257 73.2341 174.042 76.211 174.317C76.8558 174.376 78.0284 174.472 78.4076 175.074C79.1018 176.178 79.1291 185.961 78.7102 187.35C78.5131 188.003 78.2143 188.082 77.6626 188.378C75.3713 188.394 67.684 188.878 66.0847 187.845C65.8296 187.34 65.6923 186.904 65.6456 186.336C65.5124 184.721 65.5057 176.45 65.9216 175.232C66.115 174.666 66.593 174.526 67.0743 174.274Z" fill="#96CCD2"/>
<path d="M66.7732 193.934C69.8622 193.651 73.8022 193.523 76.8569 193.852C77.373 193.907 77.8548 193.968 78.1846 194.408C79.3157 195.917 79.1021 203.986 78.7539 206.042C78.6122 206.879 78.4274 207.262 77.7265 207.745C74.9209 208.098 71.7952 207.927 68.9627 207.881C68.3145 207.871 66.6299 207.862 66.229 207.328C65.3152 206.111 65.4477 197.059 65.8235 195.291C65.969 194.607 66.1968 194.304 66.7732 193.934Z" fill="#96CCD2"/>
<path d="M67.0995 213.184C69.6252 213.149 75.1155 212.686 77.2909 213.312C77.8478 213.473 78.1949 213.654 78.4305 214.207C79.1292 215.846 79.2657 224.491 78.5726 226.185C78.3535 226.722 78.0662 226.798 77.565 227.032C75.2479 227.243 69.6757 227.378 67.4062 227.022C67.0725 226.97 66.4255 226.859 66.2512 226.55C65.333 224.925 65.4425 216.434 65.9015 214.495C66.0892 213.701 66.4464 213.559 67.0995 213.184Z" fill="#96CCD2"/>
<path d="M94.8161 213.053C94.9477 213.061 95.0798 213.071 95.211 213.084C95.7743 213.143 96.0791 213.264 96.4229 213.747C97.4642 215.21 97.2308 224.709 96.807 226.649C95.1508 227.471 88.4846 227.036 86.4226 227.026C85.7767 227.001 85.2265 226.982 84.6146 226.76C84.4657 226.57 84.3804 226.408 84.3228 226.172C83.7839 223.969 83.6739 215.256 84.7713 213.434C86.6306 212.593 92.4721 213.082 94.8161 213.053Z" fill="#96CCD2"/>
<path d="M85.8638 174.275C87.7994 174.229 95.2791 173.861 96.4352 175.014C97.5928 176.17 96.9981 184.161 97.1754 186.253L97.1989 186.505L94.3956 186.487C93.167 186.474 91.6948 186.336 90.5065 186.667C90.4239 186.69 90.3431 186.719 90.2608 186.743C89.2106 187.047 88.3641 187.749 87.4867 188.386C86.6414 188.432 85.3753 188.605 84.6217 188.16C84.3112 187.977 84.2944 187.846 84.2106 187.487C83.8399 185.896 83.7749 175.719 84.3883 174.91C84.7496 174.433 85.3185 174.385 85.8638 174.275Z" fill="#96CCD2"/>
<path d="M85.0805 193.772C85.3554 193.837 85.7945 193.854 85.9613 194.096C86.5119 194.896 86.0896 203.899 86.1749 205.472C86.219 206.281 86.8302 207.178 86.7012 207.924L86.2445 208.119C85.6034 208.049 85.0495 208.018 84.4798 207.694C83.7834 206.336 83.9532 197.128 84.1799 195.241C84.2775 194.426 84.4742 194.255 85.0805 193.772Z" fill="#96CCD2"/>
<path d="M81.1197 125.497C82.0641 125.433 83.0366 125.532 83.9118 125.919C84.9965 126.398 85.8058 127.199 86.2161 128.328C87.1175 130.804 87.3494 144.661 86.1933 147.045C85.5725 148.325 84.2955 149.013 83.0179 149.45C81.9014 149.687 80.758 149.633 79.7089 149.137C78.5457 148.587 77.8081 147.474 77.4191 146.27C76.8435 144.489 76.7956 132.44 77.0544 130.094C77.1378 129.335 77.3058 128.56 77.6634 127.881C78.3822 126.516 79.7265 125.921 81.1197 125.497Z" fill="#2D9972"/>
<path d="M122.848 125.529C123.956 125.468 125.092 125.645 126.079 126.181C127.113 126.742 127.859 127.61 128.16 128.761C128.8 131.206 128.927 145.258 127.697 147.285C126.855 148.673 125.862 149.185 124.342 149.591C123.322 149.686 122.244 149.535 121.327 149.059C120.253 148.502 119.493 147.565 119.15 146.399C118.415 143.905 118.171 130.054 119.342 128.005C120.148 126.596 121.323 125.925 122.848 125.529Z" fill="#2D9972"/>
</g>
<defs>
<clipPath id="clip0_59_2">
<rect width="383" height="387" fill="white"/>
</clipPath>
</defs>
</svg>
