<svg width="109" height="109" viewBox="0 0 109 109" fill="none" xmlns="http://www.w3.org/2000/svg">
<path d="M68.5784 0.148791C69.7498 0.648036 67.3707 9.91449 71.0578 13.7671C72.5546 15.331 74.5429 16.077 76.6786 16.0483C78.7425 16.0207 80.6717 15.3053 82.1135 13.7864C85.3305 10.3975 84.4991 4.61479 84.486 0.257263C86.1242 0.148797 87.7938 0.148793 89.4354 0.139345C94.3953 0.110622 99.2737 1.89142 102.807 5.47382C105.465 8.19869 107.257 11.6632 107.956 15.4232C108.483 18.1466 108.294 21.1058 108.297 23.8745L108.279 36.4047L108.223 84.2805C108.189 91.4124 106.799 96.8123 101.623 101.929C98.6768 104.825 94.9863 106.827 90.9704 107.71C86.0887 108.823 78.2334 108.267 73.0472 108.267C62.4077 108.301 51.7683 108.277 41.1292 108.194L23.8156 108.223C17.2971 108.169 11.5802 106.138 6.9726 101.358C4.02903 98.3414 2.02128 94.522 1.19655 90.3686C0.601483 87.2699 0.85133 83.8765 0.859185 80.7287L0.867038 67.76C0.863297 51.7211 0.707704 35.6674 0.86629 19.6303C0.920149 14.1802 2.58081 9.18321 6.53275 5.33475C12.4259 -0.404493 19.4541 -0.000484882 27.0823 0.188858C27.0532 4.25727 26.2311 10.3287 29.0864 13.5664C30.4407 15.1027 32.3961 15.8813 34.4035 15.9905C36.5448 16.1065 38.7459 15.4716 40.3086 13.9436C43.6733 10.653 42.7659 4.48213 42.7562 0.17827C51.3606 0.183561 59.9751 0.26935 68.5784 0.148791ZM94.8655 97.2673C98.054 94.505 100.139 91.5345 100.444 87.1769C100.654 84.1788 100.485 81.0737 100.469 78.0669L100.418 61.5635L100.444 42.1224C100.453 38.7192 100.627 35.2169 100.43 31.8261C100.369 30.7717 100.232 29.2637 99.5157 28.455C97.6841 26.3869 93.9839 26.8926 91.4817 26.8847L40.971 26.9296C31.5938 26.9289 22.1104 26.6043 12.7445 26.9342C11.4728 27.2086 10.313 27.6798 9.547 28.8072C9.05591 29.5298 8.92201 30.2199 8.8846 31.0873C8.70732 35.1867 8.86216 39.3594 8.86441 43.4652L8.84384 66.5318L8.79073 80.353C8.77951 83.1422 8.4743 86.4831 9.07124 89.1977C9.8537 92.7567 12.3178 96.1577 15.4098 98.0133C17.2451 99.1146 19.358 99.7284 21.4791 99.9086C24.6598 100.179 27.9759 100.025 31.1712 100.026L50.877 99.9491L75.9246 99.9733C79.6614 99.9805 86.8449 100.468 90.2482 99.5742C91.9548 99.1256 93.4117 98.245 94.8655 97.2673Z" fill="#2D9972"/>
</svg>
